<svg xmlns="http://www.w3.org/2000/svg" width="48" height="48" viewBox="0 0 48 48"><title>billboard</title><g><rect x="17" y="7" width="2" height="6" fill="#b3b3b3"></rect><rect x="35" y="7" width="2" height="6" fill="#b3b3b3"></rect><path d="M4,46a1,1,0,0,1-1-1V7A4,4,0,0,1,7,3H44a1,1,0,0,1,0,2H7A2,2,0,0,0,5,7V45A1,1,0,0,1,4,46Z" fill="#b3b3b3"></path><rect x="9" y="11" width="36" height="24" rx="3" fill="#ea9860"></rect><path d="M41,32H13a1,1,0,0,1-1-1V15a1,1,0,0,1,1-1H41a1,1,0,0,1,1,1V31A1,1,0,0,1,41,32ZM14,30H40V16H14Z" fill="#fff"></path></g></svg>
